# xmcd
#
# Track frame offsets: 
#        150
#        18185
#        38129
#        58332
#        77589
#        100581
#        124716
#        147289
#        169652
#        191601
#
# Disc length: 2789 seconds
#
# Revision: 0
# Processed by: cddbd v1.5.1PL0 Copyright (c) Steve Scherf et al.
# Submitted via: ExactAudioCopy v0.95a3
#
DISCID=7b0ae30a
DTITLE=Y.T. Style - The Concept
DYEAR=1993
DGENRE=R&B
TTITLE0=Wrath of the Daddy Mack
TTITLE1=12, 15, 22, 5
TTITLE2=You'll Never Find Another
TTITLE3=Sexy
TTITLE4=It's O.K.
TTITLE5=Love Alibi
TTITLE6=Sugar Baby
TTITLE7=What Can I Do
TTITLE8=That Girl
TTITLE9=Y.T.'s Groove
EXTD=
EXTT0=
EXTT1=
EXTT2=
EXTT3=
EXTT4=
EXTT5=
EXTT6=
EXTT7=
EXTT8=
EXTT9=
PLAYORDER=
